<svg width="273" height="482" viewBox="0 0 273 482" fill="none" xmlns="http://www.w3.org/2000/svg">
<path d="M83.9006 376.77C85.6306 383 90.4206 406.83 94.2206 436.14C97.3406 460.3 78.5805 481.72 54.2305 481.72L40.3306 481.72C17.9906 481.72 -0.0994796 463.56 0.000522339 441.22C0.500532 327.54 3.76055 154.63 14.1906 139.98C22.9106 127.74 32.5406 102.71 39.0806 83.2798C46.8606 60.1898 60.4606 39.4298 78.8406 23.4398C79.3906 22.9598 79.9406 22.4898 80.4806 22.0398C92.1206 12.2398 106.241 5.81977 121.231 3.21977C241.291 -17.5802 271.891 67.3598 271.991 115.59C271.991 116.45 272.021 117.31 272.071 118.17C273.481 145.79 254.081 205.6 164.451 234.2C73.3906 263.24 72.8006 341.35 83.9006 376.77Z" fill="url(#paint0_linear_348_3)"/>
<defs>
<linearGradient id="paint0_linear_348_3" x1="233.871" y1="17.0304" x2="-496.441" y2="1073.96" gradientUnits="userSpaceOnUse">
<stop stop-color="#F2EDE4"/>
<stop offset="1" stop-color="#FAF7F2" stop-opacity="0"/>
</linearGradient>
</defs>
</svg>
