<svg width="582" height="449" viewBox="0 0 582 449" fill="none" xmlns="http://www.w3.org/2000/svg">
<path d="M41.8176 306.082C95.9428 335.626 163.997 322.303 203.01 274.524C207.328 269.237 214.963 268.117 220.626 271.929L243.731 287.472C250.138 291.784 251.485 300.63 246.693 306.691C234.475 322.143 219.974 335.395 203.444 346.189C183.639 359.121 161.786 367.992 138.486 372.555C115.186 377.117 91.6032 377.141 68.3927 372.63C49.0156 368.862 30.5969 362.062 13.462 352.354C6.74326 348.547 4.65915 339.843 8.96992 333.432L24.5194 310.32C28.3321 304.656 35.8304 302.812 41.8176 306.082Z" fill="#FAF8F5"/>
<path d="M184.716 180.77C169.746 120.95 113.816 79.9518 52.2432 83.657C45.4286 84.0665 39.4291 79.2092 38.3931 72.4652L34.1566 44.9434C32.98 37.3082 38.5738 30.3234 46.2799 29.7373C65.9206 28.244 85.493 29.926 104.636 34.7592C127.569 40.5517 148.905 50.6075 168.051 64.6414C187.198 78.6753 203.205 95.9969 215.625 116.12C225.994 132.92 233.475 151.073 237.956 170.249C239.715 177.772 234.728 185.202 227.09 186.378L199.554 190.613C192.808 191.653 186.371 187.39 184.716 180.77Z" fill="#FAF8F5"/>
<path d="M352.992 136.663C414.002 127.562 460.243 75.8867 462.516 14.2676C462.769 7.44732 468.186 1.95178 475 1.57043L502.813 0.0209164C510.527 -0.408611 516.944 5.83358 516.78 13.553C516.362 33.239 512.796 52.5477 506.126 71.1257C498.139 93.3808 486.06 113.637 470.23 131.328C454.4 149.019 435.603 163.265 414.364 173.674C396.634 182.361 377.833 188.049 358.309 190.651C350.651 191.67 343.732 185.99 343.302 178.279L341.752 150.476C341.379 143.664 346.242 137.67 352.992 136.663Z" fill="#FAF8F5"/>
<path d="M392.871 256.975C424.312 310.02 489.623 333.329 547.568 312.181C553.98 309.841 561.117 312.779 564.038 318.948L575.962 344.112C579.267 351.092 575.907 359.384 568.691 362.148C550.295 369.191 531.06 373.177 511.334 374.012C487.702 375.014 464.384 371.478 442.023 363.499C419.662 355.52 399.375 343.494 381.725 327.76C366.991 314.623 354.63 299.369 344.858 282.271C341.026 275.566 343.68 267.019 350.661 263.709L375.835 251.782C382.006 248.86 389.394 251.105 392.871 256.975Z" fill="#FAF8F5"/>
</svg>
