<svg width="423" height="504" viewBox="0 0 423 504" fill="none" xmlns="http://www.w3.org/2000/svg">
<g clip-path="url(#clip0_315_3)">
<path d="M3 -1V381.053C3 381.053 35.2351 449.788 118.112 441.811C200.989 433.835 218.177 390.876 318.243 470.049C318.243 470.049 353.543 503.185 418 501.967V-1H3Z" fill="#FAF8F5"/>
<path d="M405.149 504C352.355 504 321.072 479.662 320.738 479.381C258.185 430.238 219.838 439.61 166.778 452.6C152.705 456.045 138.138 459.609 121.529 462.6C40.3493 477.232 0.400556 434.67 0 434.23L0.988037 433.335C1.37524 433.762 40.8967 475.777 121.275 461.291C137.858 458.301 152.385 454.75 166.444 451.305C219.878 438.235 258.478 428.796 321.553 478.34C321.94 478.647 359.899 508.152 422.853 501.757L422.987 503.079C416.805 503.72 410.85 504 405.149 504Z" fill="#F9F0E3"/>
</g>
<path d="M213.742 400.597C252.968 400.597 284.767 399.357 284.767 397.827C284.767 396.297 252.968 395.057 213.742 395.057C174.515 395.057 142.716 396.297 142.716 397.827C142.716 399.357 174.515 400.597 213.742 400.597Z" fill="#F9F0E3"/>
<path opacity="0.5" d="M88.7815 395.93C113.682 395.93 133.868 394.396 133.868 392.505C133.868 390.614 113.682 389.081 88.7815 389.081C63.8808 389.081 43.6948 390.614 43.6948 392.505C43.6948 394.396 63.8808 395.93 88.7815 395.93Z" fill="#F9EAD4"/>
<path d="M372.159 400.604C372.159 401.76 356.81 402.691 337.873 402.691C318.936 402.691 303.588 401.76 303.588 400.604C303.588 399.448 318.936 398.518 337.873 398.518C356.803 398.518 372.159 399.448 372.159 400.604Z" fill="#F9F0E3"/>
<path d="M289.068 234.824L287.484 237.558H290.644L289.068 234.824Z" fill="#E7CCA8"/>
<path d="M289.068 239.84L287.484 242.574H290.644L289.068 239.84Z" fill="#E7CCA8"/>
<path d="M292.344 236.881L290.876 239.84H293.804L292.344 236.881Z" fill="#E7CCA8"/>
<path d="M51.1184 251.131L49.5349 253.872H52.6947L51.1184 251.131Z" fill="#E7CCA8"/>
<path d="M51.1184 256.147L49.5349 258.881H52.6947L51.1184 256.147Z" fill="#E7CCA8"/>
<path d="M54.3945 253.188L52.9272 256.147H55.8546L54.3945 253.188Z" fill="#E7CCA8"/>
<path d="M285.908 355.9L284.332 358.634H287.484L285.908 355.9Z" fill="#E7CCA8"/>
<path d="M285.908 360.909L284.332 363.65H287.484L285.908 360.909Z" fill="#E7CCA8"/>
<path d="M289.184 357.951L287.724 360.909H290.644L289.184 357.951Z" fill="#E7CCA8"/>
<path d="M223.642 215.507C223.642 217.434 222.088 218.99 220.163 218.99C218.238 218.99 216.683 217.434 216.683 215.507C216.683 213.581 218.238 212.025 220.163 212.025C222.08 212.025 223.642 213.588 223.642 215.507Z" stroke="white" stroke-miterlimit="10"/>
<path d="M373.982 363.636H301.874C300.806 363.636 299.942 362.771 299.942 361.702C299.942 360.633 300.806 359.768 301.874 359.768H373.982C375.05 359.768 375.914 360.633 375.914 361.702C375.914 362.771 375.05 363.636 373.982 363.636Z" fill="#FEE6C6"/>
<path d="M311.833 397.827C310.75 397.827 309.857 397.165 309.813 396.322L307.939 362.443H315.726L313.852 396.322C313.801 397.165 312.915 397.827 311.833 397.827Z" fill="#FEE6C6"/>
<path d="M364.721 397.827C363.638 397.827 362.745 397.165 362.701 396.322L360.827 362.443H368.614L366.74 396.322C366.689 397.165 365.803 397.827 364.721 397.827Z" fill="#FEE6C6"/>
<path d="M337.932 397.827C336.849 397.827 335.956 397.165 335.912 396.322L334.038 362.443H341.825L339.951 396.322C339.907 397.165 339.014 397.827 337.932 397.827Z" fill="#FEE6C6"/>
<path d="M354.108 352.997C355.146 348.366 352.236 343.77 347.609 342.732C342.982 341.693 338.39 344.606 337.352 349.237C336.315 353.868 339.225 358.464 343.852 359.502C348.479 360.541 353.071 357.628 354.108 352.997Z" fill="#F9D8AC"/>
<path d="M350.055 344.057H341.2C340.706 344.057 340.307 343.657 340.307 343.163C340.307 342.669 340.706 342.269 341.2 342.269H350.055C350.549 342.269 350.948 342.669 350.948 343.163C350.948 343.657 350.549 344.057 350.055 344.057Z" fill="#F9D8AC"/>
<path d="M341.811 327.99C342.123 328.136 342.493 328.688 342.617 329.451C342.74 330.215 342.58 330.869 342.319 331.095C342.014 330.956 341.636 330.397 341.513 329.633C341.389 328.87 341.571 328.223 341.811 327.99Z" fill="#F9D8AC"/>
<path d="M342.392 331.019L342.213 331.049L343.018 335.948L343.197 335.919L342.392 331.019Z" fill="#F9D8AC"/>
<path d="M344.389 330.884C344.055 330.862 343.503 331.174 343.096 331.792C342.689 332.418 342.58 333.079 342.718 333.414C343.045 333.443 343.605 333.123 344.011 332.505C344.425 331.887 344.513 331.218 344.389 330.884Z" fill="#F9D8AC"/>
<path d="M340.292 331.56C340.605 331.429 341.222 331.545 341.811 332.003C342.399 332.461 342.711 333.057 342.689 333.421C342.392 333.559 341.76 333.435 341.171 332.977C340.583 332.519 340.285 331.916 340.292 331.56Z" fill="#F9D8AC"/>
<path d="M340.685 333.959C340.997 333.828 341.614 333.952 342.203 334.402C342.791 334.86 343.104 335.457 343.082 335.82C342.784 335.958 342.152 335.835 341.564 335.377C340.975 334.919 340.677 334.315 340.685 333.959Z" fill="#F9D8AC"/>
<path d="M344.789 333.29C344.455 333.268 343.903 333.581 343.496 334.199C343.089 334.817 342.98 335.485 343.118 335.82C343.445 335.849 344.004 335.529 344.411 334.911C344.818 334.286 344.912 333.617 344.789 333.29Z" fill="#F9D8AC"/>
<path d="M343.176 335.811L342.997 335.84L343.802 340.74L343.981 340.71L343.176 335.811Z" fill="#F9D8AC"/>
<path d="M345.181 335.675C344.847 335.653 344.295 335.966 343.888 336.584C343.481 337.209 343.372 337.87 343.51 338.205C343.837 338.234 344.396 337.921 344.803 337.296C345.21 336.678 345.304 336.009 345.181 335.675Z" fill="#F9D8AC"/>
<path d="M341.077 336.351C341.389 336.22 342.007 336.336 342.595 336.794C343.183 337.252 343.496 337.849 343.474 338.212C343.176 338.35 342.544 338.227 341.956 337.769C341.367 337.311 341.07 336.707 341.077 336.351Z" fill="#F9D8AC"/>
<path d="M341.476 338.757C341.789 338.626 342.406 338.75 342.994 339.201C343.583 339.659 343.895 340.255 343.873 340.619C343.576 340.757 342.944 340.633 342.355 340.175C341.767 339.717 341.462 339.106 341.476 338.757Z" fill="#F9D8AC"/>
<path d="M345.573 338.081C345.239 338.059 344.687 338.372 344.28 338.99C343.873 339.608 343.764 340.277 343.902 340.611C344.229 340.64 344.789 340.32 345.195 339.702C345.609 339.084 345.697 338.408 345.573 338.081Z" fill="#F9D8AC"/>
<path d="M343.967 340.601L343.788 340.63L344.593 345.53L344.772 345.5L343.967 340.601Z" fill="#F9D8AC"/>
<path d="M349.496 331.531C349.743 331.749 349.917 332.316 349.794 332.978C349.67 333.639 349.314 334.119 348.995 334.221C348.748 334.01 348.573 333.436 348.689 332.774C348.82 332.12 349.191 331.647 349.496 331.531Z" fill="#F9D8AC"/>
<path d="M348.919 334.176L348.138 338.423L348.317 338.456L349.097 334.209L348.919 334.176Z" fill="#F9D8AC"/>
<path d="M351.021 334.715C350.709 334.592 350.099 334.672 349.51 335.042C348.929 335.421 348.617 335.929 348.646 336.242C348.944 336.373 349.568 336.286 350.157 335.915C350.738 335.537 351.028 335.021 351.021 334.715Z" fill="#F9D8AC"/>
<path d="M346.932 333.959C347.266 333.952 347.81 334.243 348.224 334.803C348.639 335.362 348.747 335.951 348.609 336.235C348.283 336.249 347.731 335.951 347.317 335.391C346.902 334.832 346.815 334.243 346.932 333.959Z" fill="#F9D8AC"/>
<path d="M346.554 336.046C346.888 336.038 347.433 336.329 347.847 336.889C348.261 337.449 348.37 338.038 348.232 338.321C347.905 338.336 347.353 338.038 346.939 337.478C346.525 336.918 346.43 336.329 346.554 336.046Z" fill="#F9D8AC"/>
<path d="M350.636 336.794C350.324 336.671 349.714 336.751 349.125 337.122C348.544 337.5 348.232 338.008 348.261 338.321C348.559 338.452 349.183 338.365 349.772 337.994C350.353 337.623 350.651 337.1 350.636 336.794Z" fill="#F9D8AC"/>
<path d="M348.16 338.332L347.379 342.579L347.558 342.612L348.338 338.364L348.16 338.332Z" fill="#F9D8AC"/>
<path d="M350.258 338.866C349.946 338.743 349.336 338.823 348.747 339.193C348.166 339.571 347.854 340.08 347.883 340.393C348.181 340.524 348.805 340.437 349.394 340.066C349.975 339.695 350.265 339.179 350.258 338.866Z" fill="#F9D8AC"/>
<path d="M346.169 338.118C346.503 338.11 347.048 338.401 347.462 338.961C347.876 339.521 347.985 340.11 347.847 340.393C347.52 340.408 346.968 340.11 346.554 339.55C346.14 338.99 346.053 338.401 346.169 338.118Z" fill="#F9D8AC"/>
<path d="M347.391 342.484L346.611 346.731L346.789 346.764L347.57 342.517L347.391 342.484Z" fill="#F9D8AC"/>
<path d="M355.583 290.338C355.961 290.578 356.36 291.342 356.404 292.352C356.454 293.355 356.142 294.177 355.779 294.431C355.401 294.213 355.002 293.428 354.951 292.418C354.907 291.414 355.241 290.607 355.583 290.338Z" fill="#FEE6C6"/>
<path d="M355.894 294.336L355.655 294.348L355.966 300.803L356.206 300.791L355.894 294.336Z" fill="#FEE6C6"/>
<path d="M358.488 294.468C358.06 294.388 357.304 294.708 356.679 295.45C356.055 296.191 355.822 297.042 355.953 297.492C356.374 297.587 357.137 297.252 357.762 296.511C358.379 295.769 358.597 294.919 358.488 294.468Z" fill="#FEE6C6"/>
<path d="M353.091 294.73C353.513 294.613 354.297 294.853 354.987 295.529C355.677 296.206 355.997 297.027 355.91 297.492C355.503 297.623 354.704 297.369 354.014 296.693C353.316 296.017 353.019 295.188 353.091 294.73Z" fill="#FEE6C6"/>
<path d="M353.244 297.892C353.665 297.776 354.45 298.016 355.14 298.692C355.83 299.368 356.149 300.189 356.062 300.655C355.655 300.786 354.856 300.531 354.166 299.855C353.469 299.179 353.178 298.35 353.244 297.892Z" fill="#FEE6C6"/>
<path d="M358.641 297.63C358.212 297.55 357.457 297.87 356.832 298.612C356.207 299.353 355.975 300.204 356.106 300.655C356.527 300.749 357.29 300.415 357.914 299.673C358.532 298.932 358.75 298.081 358.641 297.63Z" fill="#FEE6C6"/>
<path d="M356.187 300.682L355.948 300.693L356.259 307.149L356.498 307.137L356.187 300.682Z" fill="#FEE6C6"/>
<path d="M358.793 300.785C358.365 300.705 357.609 301.025 356.985 301.767C356.36 302.508 356.128 303.359 356.258 303.81C356.68 303.904 357.442 303.57 358.067 302.828C358.684 302.087 358.902 301.229 358.793 300.785Z" fill="#FEE6C6"/>
<path d="M353.396 301.047C353.818 300.931 354.602 301.171 355.292 301.847C355.982 302.523 356.302 303.344 356.215 303.81C355.808 303.941 355.009 303.686 354.319 303.01C353.622 302.327 353.324 301.498 353.396 301.047Z" fill="#FEE6C6"/>
<path d="M353.549 304.21C353.97 304.093 354.755 304.333 355.445 305.009C356.135 305.685 356.455 306.507 356.367 306.972C355.961 307.103 355.162 306.849 354.472 306.173C353.774 305.496 353.476 304.668 353.549 304.21Z" fill="#FEE6C6"/>
<path d="M358.946 303.948C358.517 303.868 357.762 304.188 357.137 304.929C356.513 305.671 356.28 306.522 356.411 306.972C356.832 307.067 357.595 306.732 358.22 305.991C358.837 305.249 359.055 304.399 358.946 303.948Z" fill="#FEE6C6"/>
<path d="M356.505 306.971L356.266 306.983L356.578 313.438L356.817 313.426L356.505 306.971Z" fill="#FEE6C6"/>
<path d="M361.002 359.681H354.246C351.551 359.681 349.423 357.376 349.641 354.686L353.149 311.538H362.091L365.6 354.686C365.825 357.376 363.696 359.681 361.002 359.681Z" fill="#FEE6C6"/>
<path d="M363.014 311.669H352.234C351.602 311.669 351.094 311.16 351.094 310.527C351.094 309.895 351.602 309.386 352.234 309.386H363.014C363.646 309.386 364.154 309.895 364.154 310.527C364.154 311.153 363.646 311.669 363.014 311.669Z" fill="#FEE6C6"/>
<path d="M358.975 320.226C359.077 316.605 359.258 312.985 359.447 309.372C359.636 305.758 359.89 302.145 360.115 298.532C360.391 294.919 360.638 291.305 360.951 287.7L361.43 282.291C361.619 280.488 361.779 278.685 361.982 276.882C361.939 278.692 361.851 280.502 361.786 282.312L361.51 287.736C361.321 291.349 361.067 294.962 360.842 298.576C360.558 302.189 360.319 305.802 360.006 309.408C359.694 313.014 359.374 316.62 358.975 320.226Z" fill="#FEE6C6"/>
<path d="M359.316 316.082C358.771 308.848 358.561 301.607 358.43 294.366C358.328 287.125 358.314 279.884 358.633 272.636C359.178 279.869 359.389 287.11 359.52 294.352C359.614 301.593 359.629 308.834 359.316 316.082Z" fill="#FEE6C6"/>
<path d="M358.394 322.872C358.844 319.273 359.367 315.689 359.912 312.112C360.449 308.528 361.052 304.959 361.619 301.382C362.244 297.812 362.839 294.242 363.493 290.68L364.488 285.337C364.844 283.563 365.178 281.782 365.556 280.008C365.338 281.803 365.077 283.599 364.837 285.395L364.045 290.767C363.508 294.352 362.905 297.921 362.338 301.498C361.713 305.068 361.118 308.637 360.464 312.2C359.803 315.769 359.142 319.324 358.394 322.872Z" fill="#FEE6C6"/>
<path d="M357.057 272.745C357.057 273.167 356.716 273.508 356.294 273.508C355.873 273.508 355.532 273.167 355.532 272.745C355.532 272.323 355.873 271.981 356.294 271.981C356.716 271.981 357.057 272.323 357.057 272.745Z" stroke="#FEE6C6" stroke-miterlimit="10"/>
<path d="M361.147 270.876C362.158 270.876 362.977 270.056 362.977 269.044C362.977 268.033 362.158 267.212 361.147 267.212C360.136 267.212 359.316 268.033 359.316 269.044C359.316 270.056 360.136 270.876 361.147 270.876Z" stroke="#FEE6C6" stroke-miterlimit="10"/>
<path d="M364.83 278.481C365.163 278.481 365.433 278.211 365.433 277.877C365.433 277.544 365.163 277.274 364.83 277.274C364.497 277.274 364.227 277.544 364.227 277.877C364.227 278.211 364.497 278.481 364.83 278.481Z" stroke="#FEE6C6" stroke-miterlimit="10"/>
<path d="M366.892 290.906C366.892 291.218 366.638 291.473 366.326 291.473C366.014 291.473 365.759 291.218 365.759 290.906C365.759 290.593 366.014 290.339 366.326 290.339C366.638 290.339 366.892 290.593 366.892 290.906Z" stroke="#FEE6C6" stroke-miterlimit="10"/>
<path d="M352.394 286.115C352.939 286.115 353.382 285.672 353.382 285.126C353.382 284.58 352.939 284.137 352.394 284.137C351.848 284.137 351.406 284.58 351.406 285.126C351.406 285.672 351.848 286.115 352.394 286.115Z" stroke="#FEE6C6" stroke-miterlimit="10"/>
<path d="M328.663 331.095H303.486V358.547H328.663V331.095Z" fill="#F9D8AC"/>
<path d="M325.844 334.17H306.312V355.471H325.844V334.17Z" fill="#FEE6C6"/>
<path d="M75.0457 205.831H70.9924V385.213H75.0457V205.831Z" fill="#FEE6C6"/>
<path d="M93.699 391.764H52.3459C52.3459 387.336 61.6074 383.752 73.0261 383.752C84.4449 383.752 93.699 387.336 93.699 391.764Z" fill="#FEE6C6"/>
<path d="M101.464 208.295H44.5737L45.627 204.602L45.8376 203.875L47.748 197.187L47.9587 196.46L58.375 160H89.1157L98.4352 196.46L98.624 197.187L100.331 203.875L100.52 204.602L101.464 208.295Z" fill="#FEE6C6"/>
<path d="M48.3074 198.822L46.3679 202.181H50.2396L48.3074 198.822Z" fill="#E5CAA6"/>
<path d="M52.6946 202.181L50.7551 198.822H54.634L52.6946 202.181Z" fill="#E5CAA6"/>
<path d="M56.5662 198.822L54.634 202.181H58.5057L56.5662 198.822Z" fill="#E5CAA6"/>
<path d="M60.9609 202.181L59.0215 198.822H62.8931L60.9609 202.181Z" fill="#E5CAA6"/>
<path d="M64.8325 198.822L62.8931 202.181H66.7647L64.8325 198.822Z" fill="#E5CAA6"/>
<path d="M69.22 202.181L67.2805 198.822H71.1594L69.22 202.181Z" fill="#E5CAA6"/>
<path d="M73.0916 198.822L71.1594 202.181H75.0311L73.0916 198.822Z" fill="#E5CAA6"/>
<path d="M77.4788 202.181L75.5466 198.822H79.4183L77.4788 202.181Z" fill="#E5CAA6"/>
<path d="M81.3579 198.822L79.4185 202.181H83.2901L81.3579 198.822Z" fill="#E5CAA6"/>
<path d="M85.7451 202.181L83.8057 198.822H87.6773L85.7451 202.181Z" fill="#E5CAA6"/>
<path d="M89.6169 198.822L87.6775 202.181H91.5564L89.6169 198.822Z" fill="#E5CAA6"/>
<path d="M94.0042 202.181L92.072 198.822H95.9436L94.0042 202.181Z" fill="#E5CAA6"/>
<path d="M97.8758 198.822L95.9436 202.181H99.8152L97.8758 198.822Z" fill="#E5CAA6"/>
<path d="M98.624 197.187H47.748L47.9587 196.46H98.4352L98.624 197.187Z" fill="#E5CAA6"/>
<path d="M100.52 204.602H45.627L45.8376 203.875H100.331L100.52 204.602Z" fill="#E5CAA6"/>
<path d="M107.885 314.707C109.367 308.964 112.555 303.831 115.831 298.887C118.737 294.496 121.781 290.127 125.616 286.521C129.451 282.908 134.18 280.065 139.381 279.265C138.11 283.366 136.839 287.466 135.567 291.566C134.296 295.667 132.981 299.854 130.475 303.337C127.853 306.972 124.054 309.632 120.001 311.537C115.94 313.442 111.597 314.642 107.275 315.834" fill="#66A986"/>
<path d="M108.154 314.781C110.341 307.009 115.091 299.942 119.885 293.523C122.362 290.2 125.086 287.074 128.384 284.552C129.946 283.352 137.914 278.067 138.706 280.56C139.055 281.665 137.122 285.657 136.796 286.711C136.185 288.681 135.59 290.651 134.965 292.614C133.796 296.3 132.524 300.03 130.251 303.199C124.905 310.622 115.578 313.261 107.21 315.573C106.876 315.668 107.014 316.191 107.355 316.097C115.534 313.836 124.411 311.291 129.997 304.413C135.51 297.63 137.13 287.467 139.65 279.339C139.716 279.128 139.505 278.968 139.316 279.004C131.449 280.444 125.355 285.613 120.539 291.771C115.229 298.561 109.985 306.267 107.631 314.643C107.529 314.97 108.052 315.115 108.154 314.781Z" fill="#66A986"/>
<path d="M99.1689 334.01C104.907 321.738 110.639 309.459 116.377 297.187C116.675 296.554 115.73 296.002 115.433 296.634C109.694 308.906 103.963 321.186 98.2246 333.457C97.9341 334.09 98.8711 334.643 99.1689 334.01Z" fill="#80B996"/>
<path d="M99.997 307.598C100.331 294.737 105.183 281.738 108.416 269.372C108.503 269.03 107.98 268.884 107.893 269.226C104.646 281.658 99.7937 294.664 99.4595 307.598C99.445 307.947 99.9898 307.947 99.997 307.598Z" fill="#80B996"/>
<path d="M91.3383 310.288C85.8614 305.417 80.3409 300.495 76.0479 294.548C71.7623 288.601 68.7478 281.469 68.9875 274.141C72.4814 279.688 79.8614 281.76 83.5006 287.212C84.6992 289.008 85.4183 291.08 86.1229 293.123C88.0987 298.845 90.0817 304.573 92.0575 310.295" fill="#66A986"/>
<path d="M91.5272 310.099C85.7815 304.988 79.9414 299.812 75.5758 293.414C73.4039 290.23 71.6243 286.747 70.5057 283.054C69.9246 281.135 69.5323 279.172 69.3434 277.18C69.1836 275.464 68.6752 274.846 69.9463 275.9C71.7478 277.398 73.295 279.012 75.2272 280.379C77.8785 282.247 80.6823 283.999 82.6799 286.609C85.2585 289.975 86.3045 294.512 87.6774 298.481C89.0503 302.443 90.4159 306.406 91.7887 310.368C91.905 310.695 92.4279 310.557 92.3117 310.222C90.7863 305.817 89.2682 301.418 87.7428 297.013C86.5442 293.537 85.6072 289.706 83.4353 286.674C79.6581 281.396 72.9027 279.39 69.2127 273.995C69.0674 273.777 68.7042 273.85 68.7042 274.134C68.588 289.735 80.3336 300.858 91.135 310.477C91.4037 310.717 91.796 310.331 91.5272 310.099Z" fill="#66A986"/>
<path d="M80.6897 283.556C89.646 301.811 95.5297 321.375 98.1229 341.549C98.2101 342.233 99.2997 342.247 99.2125 341.549C96.5975 321.178 90.6775 301.447 81.6267 283.003C81.3217 282.37 80.3774 282.923 80.6897 283.556Z" fill="#80B996"/>
<path d="M96.8512 267.197C92.3694 251.472 92.5002 234.459 97.2289 218.8C100.519 223.533 103.04 228.803 104.667 234.329C106.483 240.486 107.188 247.037 106.12 253.369C105.052 259.701 102.132 265.801 97.4469 270.185" fill="#66A986"/>
<path d="M97.1133 267.125C94.8179 258.823 93.6847 250.266 93.8808 241.651C93.9898 237.034 94.4547 232.432 95.2973 227.888C95.6605 225.933 96.0963 223.992 96.5903 222.065C97.4401 218.786 98.0358 220.407 99.2997 222.588C107.704 237.041 110.166 257.347 97.244 269.997C96.9898 270.244 97.3748 270.629 97.629 270.382C111.953 256.358 107.668 233.741 97.4547 218.663C97.3239 218.474 97.0261 218.495 96.9535 218.728C92.2973 234.599 92.1738 251.327 96.5757 267.27C96.6847 267.605 97.2077 267.46 97.1133 267.125Z" fill="#66A986"/>
<path d="M109.527 310.288C108.336 302.378 110.878 294.264 114.997 287.409C119.115 280.553 124.745 274.751 130.324 269.022C131.682 279.942 129.365 291.291 123.837 300.8C122.319 303.417 120.517 305.94 118.106 307.765C115.694 309.59 112.585 310.666 109.614 310.128" fill="#80B996"/>
<path d="M109.803 310.288C108.764 302.022 111.249 294.024 115.563 287.009C117.757 283.446 120.372 280.168 123.14 277.034C124.396 275.617 125.689 274.221 126.997 272.847C127.556 272.258 128.108 271.516 128.747 271.022C129.728 270.266 129.604 269.735 130.229 270.84C130.825 271.88 130.425 274.541 130.411 275.726C130.389 277.558 130.273 279.39 130.062 281.215C129.583 285.228 128.631 289.212 127.207 292.999C124.396 300.495 119.115 310.942 109.6 309.859C109.251 309.822 109.258 310.368 109.6 310.404C118.316 311.4 123.488 302.959 126.546 296.038C130.309 287.54 131.609 278.234 130.578 269.023C130.556 268.804 130.295 268.645 130.113 268.826C119.174 280.08 107.108 293.319 109.244 310.288C109.302 310.629 109.847 310.637 109.803 310.288Z" fill="#80B996"/>
<path d="M101.057 296.147C100.381 286.477 102.328 276.764 105.509 267.604C108.691 258.444 113.093 249.771 117.48 241.119C120.393 251.014 121.323 261.65 118.868 271.668C116.413 281.686 110.347 291.007 101.478 296.256" fill="#80B996"/>
<path d="M101.333 296.147C100.76 286.18 102.692 276.387 106.011 267.023C107.776 262.043 109.897 257.194 112.171 252.425C113.261 250.128 114.394 247.852 115.534 245.584C115.665 245.322 116.82 242.479 117.096 242.494C118.011 242.53 118.069 244.304 118.258 245.097C122.653 263.701 118.629 285.38 101.341 296.024C101.043 296.205 101.319 296.678 101.617 296.496C120.59 284.82 123.394 260.895 117.75 241.047C117.692 240.829 117.357 240.764 117.248 240.982C108.51 258.219 99.6409 276.285 100.789 296.147C100.81 296.496 101.355 296.504 101.333 296.147Z" fill="#80B996"/>
<path d="M95.1811 261.331C99.5322 286.682 100.295 312.483 97.4838 338.052C97.4039 338.75 98.5007 338.743 98.5733 338.052C101.392 312.389 100.593 286.485 96.2344 261.04C96.1109 260.349 95.0649 260.64 95.1811 261.331Z" fill="#80B996"/>
<path d="M96.9961 269.596C92.8194 266.106 89.1802 260.181 88.1996 254.83C87.219 249.48 87.5096 243.976 87.8437 238.545C88.1851 233.115 88.5701 227.633 87.7856 222.246C91.8606 227.735 95.2891 233.704 97.984 239.992C100.025 244.754 101.66 249.778 101.841 254.954C102.023 260.13 100.628 265.51 97.2068 269.4" fill="#80B996"/>
<path d="M97.1931 269.408C90.4377 263.446 87.8445 255.558 87.8082 246.725C87.7936 242.632 88.1641 238.553 88.3675 234.475C88.4692 232.432 88.5418 230.389 88.5128 228.346C88.5055 227.757 87.9462 223.642 88.3094 223.424C89.6169 222.639 98.8637 242.814 99.3795 244.297C102.27 252.577 102.895 262.05 97.0187 269.212C96.8008 269.481 97.1785 269.866 97.4037 269.597C109.048 255.406 96.9824 234.38 88.0188 222.116C87.8808 221.927 87.474 221.956 87.5103 222.254C88.7234 231.77 86.6605 241.272 87.4087 250.796C87.9898 258.219 91.1931 264.849 96.8008 269.793C97.0696 270.026 97.4546 269.64 97.1931 269.408Z" fill="#80B996"/>
<path d="M90.8582 306.928C92.9647 299.52 91.7226 289.422 88.1924 282.573C84.6621 275.732 79.1634 270.069 73.0618 265.372C73.3959 273.267 74.0061 281.272 76.6356 288.724C79.2724 296.183 83.805 303.373 90.8582 306.928Z" fill="#80B996"/>
<path d="M91.1204 307.002C95.5223 290.128 86.1083 275.246 73.2586 265.184C73.0915 265.053 72.7792 265.118 72.7937 265.38C73.462 280.466 75.9026 299.23 90.7209 307.169C91.0332 307.336 91.302 306.863 90.9969 306.696C84.2633 303.09 79.9413 296.685 77.2755 289.67C75.9026 286.056 75.0237 282.269 74.4426 278.452C74.0503 275.864 73.8034 273.261 73.6218 270.651C73.5637 269.8 73.3966 268.863 73.462 268.012C73.5564 266.776 73.0843 266.42 74.3046 266.703C75.5322 266.987 77.537 269.466 78.4305 270.317C79.7525 271.574 81.0164 272.897 82.2077 274.279C84.8662 277.361 87.2124 280.793 88.8032 284.551C91.7378 291.458 92.5005 299.579 90.5974 306.856C90.5102 307.198 91.0332 307.343 91.1204 307.002Z" fill="#80B996"/>
<path d="M121.643 364.835C121.643 377.136 116.871 387.853 109.818 393.429H87.5758C80.5226 387.853 75.7502 377.136 75.7502 364.835C75.7502 353.341 79.9197 343.229 86.2174 337.398H111.169C117.474 343.229 121.643 353.334 121.643 364.835Z" fill="#FEE6C6"/>
<path d="M88.353 349.27L82.3821 359.63H94.3311L88.353 349.27Z" stroke="#E6CAA6" stroke-miterlimit="10"/>
<path d="M88.353 351.8L84.5613 358.372H92.1447L88.353 351.8Z" stroke="#E6CAA6" stroke-width="0.5" stroke-miterlimit="10"/>
<path d="M96.9825 383.287L89.7622 387.46V379.121L96.9825 383.287Z" stroke="#E6CAA6" stroke-width="0.75" stroke-miterlimit="10"/>
<path d="M94.5854 383.287L90.9607 385.381V381.193L94.5854 383.287Z" stroke="#E6CAA6" stroke-width="0.5" stroke-miterlimit="10"/>
<path d="M107.108 340.444L101.326 350.47H112.897L107.108 340.444Z" stroke="#E6CAA6" stroke-miterlimit="10"/>
<path d="M107.108 344.247L104.617 348.565H109.607L107.108 344.247Z" stroke="#E6CAA6" stroke-width="0.5" stroke-miterlimit="10"/>
<path d="M107.108 384.472L100.469 369.197H113.755L107.108 384.472Z" stroke="#E6CAA6" stroke-miterlimit="10"/>
<path d="M107.108 380.75L102.895 371.059H111.329L107.108 380.75Z" stroke="#E6CAA6" stroke-width="0.5" stroke-miterlimit="10"/>
<path d="M85.0916 371.56C85.0916 370.543 85.9196 369.714 86.9366 369.714C87.9535 369.714 88.7816 370.543 88.7816 371.56C88.7816 372.578 87.9535 373.407 86.9366 373.407C85.9196 373.407 85.0916 372.578 85.0916 371.56Z" stroke="#E6CAA6" stroke-miterlimit="10"/>
<path d="M107.108 362.254C108.745 362.254 110.072 360.926 110.072 359.288C110.072 357.65 108.745 356.322 107.108 356.322C105.471 356.322 104.145 357.65 104.145 359.288C104.145 360.926 105.471 362.254 107.108 362.254Z" stroke="#E6CAA6" stroke-miterlimit="10"/>
<path d="M95.1664 344.894C95.8043 344.894 96.3214 344.376 96.3214 343.738C96.3214 343.099 95.8043 342.582 95.1664 342.582C94.5286 342.582 94.0115 343.099 94.0115 343.738C94.0115 344.376 94.5286 344.894 95.1664 344.894Z" stroke="#E6CAA6" stroke-miterlimit="10"/>
<g opacity="0.25">
<path opacity="0.25" d="M112.84 339.114C108.859 358.794 99.7356 377.42 86.5735 392.571C86.9004 392.862 87.2345 393.16 87.5759 393.429H109.818C116.871 387.853 121.643 377.136 121.643 364.835C121.643 354.388 118.2 345.097 112.84 339.114Z" fill="#FEE6C6"/>
</g>
<path d="M111.133 337.398H86.2611C85.5057 337.398 84.8955 336.787 84.8955 336.031V335.748C84.8955 334.992 85.5057 334.381 86.2611 334.381H111.133C111.888 334.381 112.498 334.992 112.498 335.748V336.031C112.505 336.787 111.888 337.398 111.133 337.398Z" fill="#F9D8AC"/>
<path d="M112.716 304.85C113.413 302.48 114.292 300.16 115.273 297.885C116.246 295.609 117.365 293.392 118.563 291.225C119.784 289.066 121.091 286.965 122.529 284.951C123.256 283.948 123.989 282.952 124.752 281.978C125.537 281.018 126.314 280.066 127.149 279.15C126.8 279.659 126.444 280.168 126.081 280.662L125.035 282.189C124.338 283.207 123.655 284.232 122.994 285.264C121.672 287.343 120.394 289.437 119.195 291.582C117.982 293.719 116.863 295.907 115.774 298.118C114.692 300.335 113.696 302.589 112.716 304.85Z" fill="#66A986"/>
<path d="M95.2683 263.345C94.8688 261.113 94.5492 258.873 94.2441 256.634C93.9317 254.395 93.6702 252.149 93.4087 249.909C93.169 247.663 92.9293 245.416 92.7405 243.163L92.4644 239.782C92.3991 238.655 92.3119 237.521 92.2683 236.394C92.4717 237.507 92.6315 238.626 92.8204 239.746L93.2925 243.105C93.6049 245.344 93.8664 247.59 94.1279 249.837C94.3676 252.083 94.6073 254.33 94.7961 256.591C94.9923 258.83 95.1666 261.084 95.2683 263.345Z" fill="#66A986"/>
<path d="M78.22 276.031C79.4548 277.957 80.5517 279.964 81.5831 282.007C82.6219 284.05 83.5371 286.143 84.3942 288.274C85.2296 290.404 85.9996 292.563 86.6533 294.759C86.9729 295.856 87.2853 296.961 87.5685 298.066C87.83 299.179 88.0988 300.291 88.3095 301.418L87.2271 298.168C86.8712 297.085 86.5008 296.009 86.123 294.933C85.3531 292.788 84.5686 290.651 83.726 288.543C82.8979 286.427 81.9972 284.333 81.0892 282.247C80.1594 280.16 79.1933 278.103 78.22 276.031Z" fill="#66A986"/>
<path d="M104.333 286.885C105.474 284.115 106.607 281.353 107.675 278.561C108.743 275.769 109.796 272.978 110.74 270.149C111.743 267.336 112.636 264.486 113.508 261.636C113.944 260.211 114.365 258.779 114.779 257.34L116.007 253.021C115.752 254.497 115.433 255.958 115.12 257.427C114.779 258.888 114.416 260.342 114.045 261.789C113.275 264.69 112.375 267.547 111.423 270.389C110.421 273.21 109.367 276.024 108.183 278.779C107.007 281.52 105.743 284.239 104.333 286.885Z" fill="#66A986"/>
<path d="M240.436 257.652H185.427C172.105 257.652 161.304 268.463 161.304 281.796V340.822H264.567V281.796C264.567 268.463 253.765 257.652 240.436 257.652Z" fill="#5C6193"/>
<path d="M252.342 327.83H173.521V340.822H252.342V327.83Z" fill="#4E5567"/>
<path d="M252.342 340.822H167.413V373.843H252.342V340.822Z" fill="#8E97FD"/>
<path d="M259.068 378.736H166.803C164.1 378.736 161.914 376.548 161.914 373.843H263.957C263.957 376.548 261.763 378.736 259.068 378.736Z" fill="#3F414E"/>
<path d="M164.362 394.025H161.304L166.802 378.736H171.081L164.362 394.025Z" fill="#3F414E"/>
<path d="M261.509 394.025H264.567L259.068 378.736H254.79L261.509 394.025Z" fill="#3F414E"/>
<path d="M152.544 267.125C149.587 265.155 147.103 262.349 145.933 258.99C144.764 255.631 145.026 251.705 147.009 248.753C148.992 245.802 152.776 244.042 156.241 244.835C156.386 240.153 160.686 236.743 164.849 234.599C169.432 232.236 174.219 230.869 178.904 233.014C181.512 234.213 184.258 236.162 185.638 238.684C187.018 241.2 187.839 243.977 188.638 246.74C191.914 244.791 196.374 245.089 199.366 247.452C202.359 249.815 203.674 254.09 202.541 257.732C206.245 256.162 210.734 255.464 214.141 257.608C217.722 259.862 218.957 264.493 219.204 268.724C219.415 272.359 219.051 276.213 216.988 279.208C214.548 282.756 210.226 284.428 206.136 285.773C199.061 288.092 191.776 290.033 184.33 290.251C176.885 290.469 169.214 288.855 163.112 284.588C157.004 280.32 152.696 273.166 152.914 265.715" fill="#4E5567"/>
<path d="M148.643 272.417C144.938 272.614 141.423 274.962 139.817 278.314C138.212 281.665 138.575 285.874 140.733 288.892C137.653 288.935 134.667 290.767 133.229 293.493C131.791 296.22 131.972 299.717 133.672 302.283C135.11 304.45 137.457 305.86 139.89 306.776C146.638 309.313 154.309 308.455 161.006 305.787C164.856 304.253 168.553 302.079 171.146 298.852C173.74 295.624 175.091 291.211 173.972 287.219C173.187 284.435 171.292 282.072 169.054 280.255C166.81 278.437 164.217 277.107 161.638 275.82C157.192 273.602 152.536 271.407 147.568 271.32" fill="#3F4553"/>
<path d="M170.471 321.251H149.086C142.338 321.251 136.868 315.777 136.868 309.023C136.868 302.269 142.338 296.794 149.086 296.794H166.033C168.488 296.794 170.478 298.786 170.478 301.244V321.251H170.471Z" fill="#8E97FD"/>
<path d="M173.522 373.843H159.292C154.331 373.843 150.306 369.815 150.306 364.85V296.787H164.536C169.497 296.787 173.522 300.815 173.522 305.78V373.843Z" fill="#8E97FD"/>
<path d="M176.035 235.878C177.967 235.42 180.146 235.769 181.861 236.947C182.703 237.536 183.444 238.299 183.916 239.208C184.199 239.637 184.345 240.131 184.526 240.596C184.664 241.076 184.759 241.578 184.839 242.058C184.599 241.614 184.446 241.149 184.199 240.727C183.945 240.313 183.742 239.877 183.437 239.506C182.907 238.721 182.216 238.066 181.446 237.536C180.684 236.998 179.812 236.612 178.904 236.343C177.989 236.096 177.03 235.922 176.035 235.878Z" fill="white"/>
<path d="M208.374 259.818C210.407 259.782 212.514 260.538 214.054 261.999C214.446 262.356 214.758 262.792 215.071 263.214C215.318 263.686 215.608 264.13 215.746 264.638C215.95 265.126 216.015 265.649 216.095 266.158C216.146 266.674 216.124 267.19 216.11 267.692C215.884 266.696 215.659 265.722 215.223 264.849C214.824 263.962 214.257 263.17 213.553 262.516C212.863 261.847 212.049 261.301 211.177 260.858C210.284 260.436 209.354 260.066 208.374 259.818Z" fill="white"/>
<path d="M196.134 249.146C196.584 249.211 197.013 249.371 197.427 249.575C197.841 249.778 198.219 250.047 198.553 250.36C198.887 250.68 199.163 251.073 199.352 251.494C199.548 251.916 199.621 252.388 199.606 252.839C199.461 252.41 199.337 251.989 199.098 251.625C198.865 251.262 198.611 250.92 198.291 250.622C197.674 250.026 196.933 249.553 196.134 249.146Z" fill="white"/>
<path d="M207.189 280.691C208.105 277.361 207.807 273.596 205.875 270.731C203.943 267.867 200.238 266.136 196.897 267.009C197.921 264.602 196.439 261.731 194.274 260.255C192.117 258.779 189.444 258.321 186.887 257.739C179.376 256.031 172.178 252.941 165.764 248.674C162.517 246.514 161.979 247.002 160.447 243.519C159.531 244.864 157.737 247.052 157.686 248.717C154.788 246.071 148.977 245.795 147.001 248.746C145.018 251.698 144.757 255.624 145.926 258.983C147.096 262.341 149.58 265.148 152.536 267.118L152.899 265.708C152.682 273.159 156.989 280.313 163.098 284.581C169.207 288.848 176.877 290.462 184.316 290.244C191.18 290.041 197.906 288.376 204.458 286.296C205.671 284.573 206.637 282.705 207.189 280.691Z" fill="#3F4553"/>
<path d="M166.919 305.78V365.41H155.297V315.115H152.108C148.745 315.115 146.021 312.389 146.021 309.023C146.021 305.657 148.745 302.93 152.108 302.93H164.071C165.648 302.93 166.919 304.202 166.919 305.78Z" stroke="#8C96FF" stroke-miterlimit="10"/>
<path d="M179.093 256.438C178.606 252.628 181.018 249.182 184.475 248.739C187.94 248.295 191.144 251.014 191.638 254.824C192.124 258.634 189.713 262.08 186.255 262.523C182.79 262.967 179.587 260.24 179.093 256.438Z" fill="#8E97FD"/>
<path d="M179.093 256.44C179.58 260.249 182.79 262.976 186.255 262.525C187.693 262.343 188.943 261.631 189.887 260.606C185.587 257.843 184.831 250.987 184.693 248.726C184.621 248.733 184.555 248.733 184.483 248.741C181.018 249.184 178.606 252.63 179.093 256.44Z" fill="#8E97FD"/>
<path d="M169.861 272.178L172.301 283.185L180.858 285.628C180.858 285.628 183.916 282.567 183.916 281.956C183.916 281.345 179.638 269.728 179.638 269.728L169.861 272.178Z" fill="#FDBCA0"/>
<path d="M179.63 269.735L169.853 272.178L170.689 275.936C172.439 276.693 174.415 277.252 176.667 277.529C177.894 277.681 179.158 277.449 180.233 276.823C180.785 276.504 181.301 276.111 181.795 275.697C180.72 272.694 179.63 269.735 179.63 269.735Z" fill="#DF8370"/>
<path d="M156.415 250.164C156.415 250.164 155.195 274.017 176.58 275.238C183.299 272.796 187.577 263.621 186.357 256.278C185.136 248.942 177.19 236.707 165.582 240.378C159.473 242.828 156.415 250.164 156.415 250.164Z" fill="#FDBCA0"/>
<path d="M224.238 277.689L239.775 258.677C240.393 257.921 240.734 256.976 240.734 255.995V250.833C240.734 250.44 240.988 250.084 241.359 249.96C241.954 249.764 242.564 250.208 242.564 250.833V254.453L248.063 244.668L255.392 244.057L245.615 261.178L230.95 286.864L224.238 277.689Z" fill="#FDBCA0"/>
<path d="M292.671 260.56L318.334 269.124L326.23 262.465C329.186 259.971 333.522 259.731 336.595 262.08C338.375 263.439 339.312 265.351 337.271 267.903C332.382 274.017 318.326 280.742 318.326 280.742L289.605 274.628L292.671 260.56Z" fill="#FDBCA0"/>
<path opacity="0.5" d="M289.62 274.628L303.879 277.667C304.794 272.527 304.082 267.336 303.421 264.152L292.678 260.567L289.62 274.628Z" fill="#DF8370"/>
<path d="M213.851 304.595C213.851 304.595 246.022 268.819 260.412 256.605C262.809 254.569 265.918 253.581 269.056 253.835C279.676 254.693 301.838 258.728 301.838 258.728C301.838 258.728 306.116 274.628 298.169 283.803C293.281 283.192 271.286 278.91 271.286 278.91L226.679 327.83L213.851 304.595Z" fill="#739BE0"/>
<path d="M299.389 291.749L320.164 314.984L337.488 317.958C340.706 318.51 342.726 321.913 341.447 324.922C340.619 326.864 338.636 329.481 334.22 328.441C323.832 325.998 314.055 322.938 314.055 322.938L289.612 303.367L299.389 291.749Z" fill="#FDBCA0"/>
<path opacity="0.5" d="M312.188 306.064L299.389 291.749L289.612 303.367L306.697 317.049C309.515 314.134 311.905 310.419 312.188 306.064Z" fill="#DF8370"/>
<path opacity="0.2" d="M260.274 263.679L215.361 307.321L226.686 327.83L271.293 278.91C271.293 278.91 293.288 283.192 298.176 283.803C298.685 283.221 299.135 282.603 299.549 281.971C291.559 275.435 282.022 267.932 274.918 262.69C270.443 259.397 264.254 259.811 260.274 263.679Z" fill="#739BE0"/>
<path d="M196.134 324.159C196.134 324.159 207.132 340.059 223.018 338.227C237.85 336.511 254.274 315.079 265.838 296.816C267.022 294.941 269.673 294.73 271.148 296.38C280.242 306.58 296.339 321.716 296.339 321.716C296.339 321.716 311.615 314.381 311.615 302.756C307.402 297.696 289.823 279.55 279.312 268.768C274.78 264.115 267.443 263.715 262.424 267.838L213.233 308.259L196.134 324.159Z" fill="#97B8FF"/>
<g opacity="0.5">
<path opacity="0.5" d="M223.018 338.227C237.85 336.511 254.274 315.079 265.838 296.816C267.022 294.94 269.673 294.73 271.148 296.38C280.242 306.58 296.339 321.716 296.339 321.716C296.339 321.716 299.898 320 303.581 316.925C295.395 308.768 286.722 301.105 277.613 294.003C274.664 291.705 271.162 289.335 267.494 290.062C264.305 290.702 262.061 293.486 260.107 296.089C255.879 301.716 251.659 307.343 247.431 312.97C242.819 319.114 237.945 325.475 231.037 328.826C225.146 331.676 218.078 331.996 211.955 329.692C207.204 327.903 203.078 324.544 200.282 320.313L196.134 324.166C196.134 324.159 207.132 340.059 223.018 338.227Z" fill="#97B8FF"/>
</g>
<path d="M255.4 321.251H276.784C283.532 321.251 289.002 315.777 289.002 309.023C289.002 302.269 283.532 296.794 276.784 296.794H259.838C257.383 296.794 255.392 298.786 255.392 301.244V321.251H255.4Z" fill="#8E97FD"/>
<path d="M252.342 373.843H266.571C271.533 373.843 275.557 369.815 275.557 364.85V296.787H261.327C256.366 296.787 252.342 300.815 252.342 305.78V373.843Z" fill="#8E97FD"/>
<path d="M258.421 305.78V365.41H270.044V315.115H273.232C276.596 315.115 279.319 312.389 279.319 309.023C279.319 305.657 276.596 302.93 273.232 302.93H261.269C259.693 302.93 258.421 304.202 258.421 305.78Z" stroke="#8C96FF" stroke-miterlimit="10"/>
<path d="M161.914 261.171L151.527 264.232C151.527 264.232 154.585 274.628 169.861 281.353L171.691 280.742C171.691 280.742 180.241 285.533 182.384 277.325C185.841 276.118 190.192 275.115 193.599 274.424C197.122 273.712 200.776 274.272 203.921 275.995L216.139 282.705C217.294 283.337 218.739 283.068 219.589 282.058L227.906 272.178L236.39 278.568L224.63 297.303C223.867 298.525 222.291 298.954 221.013 298.292L209.579 292.36L216.298 302.756C216.298 302.756 215.688 321.716 196.134 324.159C189.415 317.434 180.858 308.87 175.97 305.199C171.081 301.527 155.195 291.131 150.917 286.849C146.638 282.567 135.641 267.278 135.031 259.331C135.031 255.049 159.473 251.996 159.473 251.996L161.914 261.171Z" fill="#FFFFFE"/>
<path d="M158.006 285.031C145.236 276.271 139.825 264.828 137.537 256.954C135.997 257.688 135.031 258.488 135.031 259.339C135.641 267.292 146.638 282.574 150.917 286.856C155.195 291.138 171.081 301.534 175.97 305.206C176.841 305.86 177.836 306.674 178.904 307.605C176.296 302.065 170.558 293.646 158.006 285.031Z" fill="#F2F2F2"/>
<path d="M197.914 284.464C198.422 284.319 198.945 284.239 199.475 284.195C200.006 284.144 200.536 284.152 201.073 284.203C202.134 284.304 203.209 284.573 204.175 285.097C205.148 285.591 206.006 286.347 206.63 287.241C206.979 287.67 207.204 288.172 207.458 288.652C207.698 289.139 207.829 289.67 208.018 290.179L207.967 290.077C208.562 290.884 209.114 291.727 209.688 292.549C210.262 293.377 210.8 294.221 211.337 295.079C210.662 294.33 209.993 293.574 209.361 292.803C208.729 292.025 208.068 291.262 207.458 290.469L207.436 290.448L207.4 290.368C207.204 289.902 207.051 289.415 206.826 288.957C206.579 288.521 206.376 288.056 206.049 287.67C205.78 287.249 205.417 286.907 205.068 286.544C204.676 286.238 204.306 285.904 203.855 285.671C202.991 285.169 202.032 284.806 201.015 284.632C200.006 284.457 198.96 284.377 197.914 284.464Z" fill="#97B8FF"/>
<path d="M173.892 257.994C174.43 258.844 174.895 260.56 176.253 260.291C176.718 260.197 176.936 259.84 177.292 259.564C178.541 258.59 179.195 260.088 178.309 260.909C177.851 261.331 177.212 261.433 176.623 261.498C176.282 261.534 176.275 262.08 176.623 262.043C177.48 261.949 178.381 261.752 178.933 261.025C179.376 260.444 179.464 259.644 178.977 259.063C178.526 258.539 177.858 258.452 177.292 258.83C176.761 259.179 176.464 260.008 175.599 259.637C174.982 259.375 174.691 258.234 174.364 257.718C174.175 257.427 173.703 257.696 173.892 257.994Z" fill="#444359"/>
<path d="M171.008 266.013C173.849 268.397 177.8 267.881 179.899 264.813C180.096 264.522 179.623 264.246 179.427 264.537C177.546 267.292 173.958 267.779 171.393 265.627C171.125 265.402 170.74 265.787 171.008 266.013Z" fill="#444359"/>
<path d="M164.42 256.38C165.081 254.679 166.752 253.741 168.553 254.061C168.895 254.119 169.04 253.595 168.698 253.537C166.592 253.166 164.667 254.242 163.897 256.242C163.766 256.562 164.297 256.7 164.42 256.38Z" fill="#444359"/>
<path d="M166.156 261.214L164.711 260.378L166.374 260.524L166.156 261.214Z" fill="#444359"/>
<path d="M166.505 261.418C167.275 259.339 169.396 258.379 171.488 259.084C171.822 259.193 171.967 258.67 171.633 258.561C169.251 257.761 166.846 258.932 165.982 261.28C165.858 261.6 166.381 261.745 166.505 261.418Z" fill="#444359"/>
<path d="M167.449 259.215L166.803 257.318L168.081 258.859L167.449 259.215Z" fill="#444359"/>
<path d="M170.435 258.626L170.878 257.318L171.161 258.677L170.435 258.626Z" fill="#444359"/>
<path d="M181.432 254.162L182.449 252.832L182.093 254.468L181.432 254.162Z" fill="#444359"/>
<path d="M182.209 254.352C179.907 253.45 177.444 254.461 176.463 256.729C176.325 257.049 176.798 257.325 176.936 257.005C177.829 254.94 179.965 254.053 182.071 254.875C182.391 255.006 182.529 254.475 182.209 254.352Z" fill="#444359"/>
<path d="M179.057 254.315L178.773 252.33L179.747 254.082L179.057 254.315Z" fill="#444359"/>
<path d="M176.856 256.474L176.035 255.355L177.306 255.907L176.856 256.474Z" fill="#444359"/>
<path d="M241.62 260.567L248.848 237.885C249.036 237.296 249.574 236.889 250.199 236.874L263.165 236.532C264.16 236.503 264.886 237.463 264.596 238.415L257.39 261.978C257.194 262.61 256.598 263.032 255.937 263.01L242.949 262.479C241.991 262.421 241.33 261.483 241.62 260.567Z" fill="#3F4553"/>
<path d="M240.4 260.568L247.627 237.885C247.816 237.296 248.354 236.889 248.978 236.874L261.944 236.533C262.94 236.503 263.666 237.463 263.375 238.416L256.17 261.978C255.974 262.61 255.378 263.032 254.717 263.01L241.729 262.48C240.763 262.421 240.109 261.484 240.4 260.568Z" fill="#4E5567"/>
<path d="M261.022 240.226L256.191 256.009L255.501 258.277L255.175 259.346C255.058 259.724 254.768 260.008 254.419 260.124C254.281 260.168 254.143 260.189 253.998 260.182L251.288 260.073L243.458 259.753C242.673 259.717 242.143 258.954 242.376 258.212L246.117 246.463L247.533 242.021L248.245 239.797C248.274 239.702 248.317 239.608 248.376 239.528C248.579 239.201 248.935 238.99 249.334 238.975L249.712 238.968L259.86 238.699C260.666 238.677 261.254 239.455 261.022 240.226Z" fill="#F2EDE4"/>
<g opacity="0.35">
<path opacity="0.35" d="M256.191 256.009L255.501 258.277L248.375 239.528C248.579 239.201 248.935 238.99 249.334 238.975L249.712 238.968L256.191 256.009Z" fill="white"/>
</g>
<g opacity="0.35">
<path opacity="0.35" d="M254.419 260.124C254.281 260.168 254.143 260.189 253.998 260.182L251.288 260.073L246.116 246.463L247.533 242.021L254.419 260.124Z" fill="white"/>
</g>
<path d="M159.248 264.69C161.769 258.961 162.437 252.432 161.137 246.304C162.045 249.219 165.219 250.869 168.248 251.254C171.277 251.64 174.35 251.102 177.4 251.254C180.451 251.407 183.749 252.483 185.289 255.122C185.572 255.602 185.885 256.198 186.437 256.242C187.127 256.3 187.533 255.486 187.679 254.81C188.805 249.742 186.727 244.181 182.768 240.822C178.81 237.463 173.202 236.293 168.139 237.434C163.076 238.575 158.616 241.905 155.754 246.231C153.96 248.943 152.747 252.076 152.565 255.326C152.384 258.568 153.284 261.92 155.311 264.457C155.812 265.082 156.43 265.686 157.214 265.86C157.999 266.035 158.957 265.591 159.081 264.791" fill="#3F4553"/>
<path d="M159.179 271.997C162.937 271.23 165.315 267.33 164.491 263.286C163.667 259.241 159.953 256.585 156.195 257.351C152.438 258.118 150.059 262.019 150.883 266.063C151.707 270.107 155.422 272.764 159.179 271.997Z" fill="#8E97FD"/>
<path d="M154.941 261.672C150.815 249.081 155.979 244.333 156.212 244.028L156.364 244.013H156.401L156.553 244.006C156.379 244.246 154.301 249.953 157.694 260.306L154.941 261.672Z" fill="#8E97FD"/>
<path d="M163.65 268.71C152.972 271.545 151.214 265.824 151.236 261.694C150.728 263.025 150.582 264.537 150.895 266.071C151.723 270.12 155.434 272.774 159.19 272.01C161.129 271.603 162.698 270.367 163.65 268.71Z" fill="#8E97FD"/>
<defs>
<clipPath id="clip0_315_3">
<rect width="423" height="504" fill="white"/>
</clipPath>
</defs>
</svg>
