<svg width="486" height="755" viewBox="0 0 486 755" fill="none" xmlns="http://www.w3.org/2000/svg">
<path d="M407 0C450.63 0 486 35.3695 486 79C486 109.664 468.53 136.246 443 149.339V755H29V152.375C12.0852 146.241 0 130.033 0 111C0 86.6995 19.6995 67 44 67C60.3808 67 74.6696 75.9523 82.2441 89.2305C89.1174 85.88 96.8391 84 105 84C109.801 84 114.45 84.6513 118.863 85.8691C132.294 67.1757 154.225 55 179 55C192.581 55 205.308 58.6594 216.248 65.0449C222.827 51.9706 236.365 43 252 43C263.565 43 273.982 47.9106 281.285 55.7578C291.233 40.8329 308.218 31 327.5 31C332.767 31 337.863 31.7336 342.691 33.1045C357.02 13.063 380.485 0 407 0ZM278.45 113H278.726C278.696 112.946 278.665 112.892 278.636 112.838C278.574 112.893 278.512 112.946 278.45 113Z" fill="url(#paint0_linear_327_2)"/>
<defs>
<linearGradient id="paint0_linear_327_2" x1="236" y1="32" x2="236" y2="545.5" gradientUnits="userSpaceOnUse">
<stop stop-color="#FAF8F5"/>
<stop offset="1" stop-color="white" stop-opacity="0"/>
</linearGradient>
</defs>
</svg>
